<svg width="75" height="24" viewBox="0 0 75 24" fill="none" xmlns="http://www.w3.org/2000/svg">
<path d="M0.193255 2.42485C0.193164 2.0921 0.325526 1.77253 0.56203 1.53449C0.798535 1.29645 1.1204 1.15884 1.45878 1.1511H8.67027C13.7826 1.1511 17.1473 3.82696 17.1473 8.21101V8.27025C17.1473 13.069 13.0695 15.5573 8.24843 15.5573H2.75444V22.2913C2.77019 22.466 2.74878 22.642 2.69159 22.8081C2.63439 22.9743 2.54265 23.1269 2.4222 23.2563C2.30175 23.3856 2.15523 23.4889 1.99196 23.5596C1.82869 23.6303 1.65224 23.6668 1.47384 23.6668C1.29544 23.6668 1.119 23.6303 0.955733 23.5596C0.792463 23.4889 0.645943 23.3856 0.525494 23.2563C0.405045 23.1269 0.313297 22.9743 0.256098 22.8081C0.1989 22.642 0.177502 22.466 0.193255 22.2913V2.42485ZM8.34887 13.2862C12.0952 13.2862 14.556 11.3114 14.556 8.34924V8.29C14.556 5.11057 12.1354 3.46162 8.52966 3.46162H2.80466V13.2467L8.34887 13.2862Z" />
<path d="M22.0185 2.26683C22.0028 2.09213 22.0242 1.91613 22.0814 1.75C22.1386 1.58388 22.2303 1.43128 22.3507 1.30191C22.4712 1.17253 22.6177 1.06922 22.781 0.998539C22.9443 0.927858 23.1207 0.891357 23.2991 0.891357C23.4775 0.891357 23.654 0.927858 23.8172 0.998539C23.9805 1.06922 24.127 1.17253 24.2475 1.30191C24.3679 1.43128 24.4597 1.58388 24.5168 1.75C24.574 1.91613 24.5955 2.09213 24.5797 2.26683V22.2913C24.5955 22.466 24.574 22.642 24.5168 22.8081C24.4597 22.9742 24.3679 23.1268 24.2475 23.2562C24.127 23.3856 23.9805 23.4889 23.8172 23.5596C23.654 23.6303 23.4775 23.6668 23.2991 23.6668C23.1207 23.6668 22.9443 23.6303 22.781 23.5596C22.6177 23.4889 22.4712 23.3856 22.3507 23.2562C22.2303 23.1268 22.1386 22.9742 22.0814 22.8081C22.0242 22.642 22.0028 22.466 22.0185 22.2913V2.26683Z" />
<path d="M31.1986 2.29647C31.2064 1.96982 31.3425 1.65882 31.5784 1.4287C31.8144 1.19858 32.1318 1.06724 32.4641 1.06222H32.8157C33.0766 1.06747 33.3321 1.13714 33.5585 1.26482C33.7849 1.3925 33.975 1.57409 34.1113 1.7929L47.8614 19.023V2.23723C47.8614 1.9125 47.9926 1.60108 48.2262 1.37147C48.4597 1.14185 48.7765 1.01285 49.1068 1.01285C49.4371 1.01285 49.7539 1.14185 49.9875 1.37147C50.2211 1.60108 50.3523 1.9125 50.3523 2.23723V22.3308C50.3577 22.4836 50.3315 22.6359 50.2752 22.7784C50.2188 22.9209 50.1335 23.0506 50.0245 23.1596C49.9155 23.2686 49.785 23.3547 49.6411 23.4125C49.4971 23.4703 49.3427 23.4987 49.1872 23.4959H49.0566C48.7899 23.4779 48.5311 23.3988 48.301 23.2651C48.0708 23.1314 47.8756 22.9467 47.7308 22.7258L33.6694 5.09081V22.3308C33.6672 22.649 33.541 22.9544 33.3168 23.1839C33.0926 23.4135 32.7875 23.5499 32.4641 23.5651C32.1356 23.5599 31.8224 23.4272 31.5929 23.196C31.3634 22.9648 31.2361 22.6538 31.2388 22.3308V2.29647H31.1986Z" />
<path d="M56.7402 2.26683C56.7244 2.09213 56.7458 1.91613 56.803 1.75C56.8602 1.58388 56.952 1.43128 57.0724 1.30191C57.1929 1.17253 57.3394 1.06922 57.5027 0.998539C57.6659 0.927858 57.8424 0.891357 58.0208 0.891357C58.1992 0.891357 58.3756 0.927858 58.5389 0.998539C58.7022 1.06922 58.8487 1.17253 58.9691 1.30191C59.0896 1.43128 59.1813 1.58388 59.2385 1.75C59.2957 1.91613 59.3171 2.09213 59.3014 2.26683V14.4415L72.1977 1.43742C72.4623 1.16834 72.8218 1.0093 73.2021 0.993085C73.5308 1.00568 73.8421 1.1417 74.072 1.37314C74.3018 1.60457 74.4326 1.91382 74.4375 2.23721C74.4304 2.40539 74.3895 2.57052 74.317 2.72305C74.2446 2.87558 74.1422 3.01249 74.0156 3.12587L65.9805 10.9461L74.6484 21.373C74.8749 21.631 74.9997 21.9604 74.9999 22.3012C74.9961 22.4719 74.9578 22.6402 74.8874 22.7963C74.817 22.9524 74.7159 23.0933 74.5898 23.2108C74.4638 23.3283 74.3153 23.4201 74.153 23.4809C73.9906 23.5417 73.8176 23.5703 73.644 23.565C73.4413 23.5595 73.2432 23.5043 73.0678 23.4042C72.8923 23.3042 72.7451 23.1626 72.6396 22.9923L64.1927 12.6345L59.3014 17.4333V22.2715C59.3014 22.4362 59.2684 22.5993 59.2043 22.7514C59.1402 22.9036 59.0462 23.0418 58.9278 23.1583C58.8093 23.2747 58.6687 23.3671 58.5139 23.4301C58.3592 23.4931 58.1933 23.5255 58.0258 23.5255C57.8583 23.5255 57.6924 23.4931 57.5377 23.4301C57.3829 23.3671 57.2423 23.2747 57.1238 23.1583C57.0054 23.0418 56.9114 22.9036 56.8473 22.7514C56.7832 22.5993 56.7502 22.4362 56.7502 22.2715V2.26683H56.7402Z" />
</svg>
