<svg width="46" height="26" viewBox="0 0 46 26" fill="none" xmlns="http://www.w3.org/2000/svg">
<path d="M45.9203 4.91682C45.3273 4.91812 44.7398 4.80441 44.1915 4.58219C43.6432 4.35997 43.1448 4.03361 42.725 3.6218C42.3052 3.20999 41.9721 2.72081 41.7448 2.18228C41.5176 1.64375 41.4006 1.06644 41.4006 0.483398C41.3979 1.66012 40.9206 2.78776 40.0733 3.6189C39.2259 4.45005 38.0778 4.91683 36.8809 4.91682C38.0788 4.91943 39.2268 5.3884 40.0739 6.22112C40.9209 7.05383 41.3979 8.18249 41.4006 9.36012C41.4006 8.18168 41.8768 7.05151 42.7244 6.21823C43.572 5.38495 44.7216 4.91682 45.9203 4.91682Z"/>
<path d="M33.0743 8.38259C32.3417 8.38259 31.6392 8.0965 31.1212 7.58728C30.6032 7.07805 30.3122 6.38739 30.3122 5.66724C30.3122 6.38568 30.0226 7.07485 29.5068 7.5838C28.9909 8.09274 28.291 8.37997 27.5602 8.38259C28.2901 8.38259 28.99 8.66763 29.5062 9.175C30.0223 9.68238 30.3122 10.3705 30.3122 11.0881C30.3149 10.3696 30.607 9.68149 31.1247 9.1744C31.6424 8.6673 32.3435 8.38258 33.0743 8.38259Z"/>
<path d="M3.84491 21.8384C4.35856 22.347 5.05595 22.6354 5.78501 22.6406C5.05595 22.6459 4.35856 22.9342 3.84491 23.4429C3.33126 23.9516 3.04302 24.6392 3.04303 25.356C3.04304 24.6375 2.75342 23.9484 2.2376 23.4394C1.72178 22.9305 1.02182 22.6433 0.291016 22.6406C1.02182 22.638 1.72178 22.3508 2.2376 21.8419C2.75342 21.3329 3.04304 20.6437 3.04303 19.9253C3.04302 20.642 3.33126 21.3297 3.84491 21.8384Z"/>
</svg>
